<svg width="35" height="28" xmlns="http://www.w3.org/2000/svg">
 <defs>
  <linearGradient y2="0.004365" x2="0.969121" y1="0.941505" x1="0.969121" id="paint0_linear_4_215">
   <stop stop-color="#05CD66"/>
   <stop stop-color="#61F380" offset="1"/>
   <stop stop-color="#9EEE69" offset="1"/>
  </linearGradient>
  <linearGradient y2="-0.000361" x2="0.968747" y1="0.935353" x1="0.968747" id="paint1_linear_4_215">
   <stop stop-color="#E4E6E6"/>
   <stop stop-color="#F0F0F0" offset="1"/>
  </linearGradient>
 </defs>
 <g>
  <path id="svg_2" fill="url(#paint0_linear_4_215)" d="m0,10.3686c0,3.1106 1.69584,5.9524 4.31669,7.8341c0.23126,0.1536 0.34688,0.384 0.34688,0.6912c0,0.0768 -0.03854,0.192 -0.03854,0.2688c-0.19271,0.7681 -0.53959,2.0354 -0.57813,2.0738c-0.03854,0.1152 -0.07708,0.192 -0.07708,0.3072c0,0.2304 0.19271,0.4224 0.42396,0.4224c0.07708,0 0.15417,-0.0384 0.23125,-0.0768l2.73648,-1.5745c0.19271,-0.1152 0.42396,-0.192 0.65521,-0.192c0.11562,0 0.26979,0 0.38542,0.0384c1.27188,0.384 2.65936,0.576 4.08546,0.576c6.899,0 12.4876,-4.6466 12.4876,-10.3686c0,-5.72192 -5.5886,-10.3686 -12.4876,-10.3686c-6.89902,0 -12.4876,4.64668 -12.4876,10.3686" clip-rule="evenodd" fill-rule="evenodd"/>
  <path id="svg_3" fill="url(#paint1_linear_4_215)" d="m24.1226,26.8393c1.1919,0 2.3454,-0.1548 3.3835,-0.4643c0.0769,-0.0387 0.1922,-0.0387 0.3076,-0.0387c0.1922,0 0.3845,0.0774 0.5383,0.1548l2.2685,1.3155c0.0769,0.0387 0.1153,0.0773 0.1922,0.0773c0.1923,0 0.346,-0.1547 0.346,-0.3482c0,-0.0774 -0.0384,-0.1547 -0.0384,-0.2708c0,-0.0387 -0.3076,-1.0833 -0.4614,-1.7411c-0.0384,-0.0774 -0.0384,-0.1548 -0.0384,-0.2321c0,-0.2322 0.1153,-0.4256 0.3076,-0.5804c2.1915,-1.5863 3.5757,-3.9465 3.5757,-6.5774c0,-4.7977 -4.6523,-8.70549 -10.3812,-8.70549c-5.7289,0 -10.3813,3.86909 -10.3813,8.70549c0,4.7976 4.6524,8.7054 10.3813,8.7054z" clip-rule="evenodd" fill-rule="evenodd"/>
  <path id="svg_4" fill="#168743" d="m9.92987,7.02114c0,0.89571 -0.70911,1.60482 -1.60483,1.60482c-0.89571,0 -1.60483,-0.70911 -1.60483,-1.60482c0,-0.89572 0.70912,-1.60483 1.60483,-1.60483c0.89572,0 1.60483,0.70911 1.60483,1.60483" clip-rule="evenodd" fill-rule="evenodd"/>
  <path id="svg_5" fill="#168743" d="m18.2549,7.02114c0,0.89571 -0.7091,1.60482 -1.6048,1.60482c-0.8957,0 -1.6048,-0.70911 -1.6048,-1.60482c0,-0.89572 0.7091,-1.60483 1.6048,-1.60483c0.8957,0 1.6048,0.70911 1.6048,1.60483" clip-rule="evenodd" fill-rule="evenodd"/>
  <path id="svg_6" fill="#919191" d="m26.2791,15.4465c0,0.7801 0.6241,1.4042 1.4042,1.4042c0.7801,0 1.4042,-0.6241 1.4042,-1.4042c0,-0.7801 -0.6241,-1.4042 -1.4042,-1.4042c-0.7801,0 -1.4042,0.6241 -1.4042,1.4042" clip-rule="evenodd" fill-rule="evenodd"/>
  <path id="svg_7" fill="#919191" d="m19.3583,15.4465c0,0.7801 0.6241,1.4042 1.4042,1.4042c0.7801,0 1.4042,-0.6241 1.4042,-1.4042c0,-0.7801 -0.6241,-1.4042 -1.4042,-1.4042c-0.7801,0 -1.4042,0.6241 -1.4042,1.4042" clip-rule="evenodd" fill-rule="evenodd"/>
 </g>
</svg>